<svg width="568" height="602" viewBox="0 0 568 602" fill="none" xmlns="http://www.w3.org/2000/svg">
<path fill-rule="evenodd" clip-rule="evenodd" d="M326.5 8.0252e-05C445 -2.46652e-07 568 0.000361493 568 0.000361493C568 0.000361493 567.892 23.5453 567.892 97.7731C567.892 172.001 567.892 246.001 567.892 292.273C567.892 338.545 568 434.001 568 526.001C568 618.001 568 600.501 568 600.501C568 600.501 375.741 601.887 284.381 600.773C193.02 599.66 158.977 599.077 93.5665 544.566C24.5973 487.09 -15.7113 387.273 7.32451 300.65C29.876 215.849 150.554 196.168 205.102 125.156C261.826 51.3115 208 0.000160751 326.5 8.0252e-05Z" fill="#D4E4FA"/>
</svg>
