<svg width="352" height="100" viewBox="0 0 352 100" fill="none" xmlns="http://www.w3.org/2000/svg">
<path d="M89.9112 67.0416L85.3697 35.1249C84.2031 26.9166 77.1619 20.8333 68.8707 20.8333H31.1228C22.8316 20.8333 15.7903 26.9166 14.6237 35.1249L10.0823 67.0416C9.16572 73.4583 14.1238 79.1666 20.5817 79.1666C23.4149 79.1666 26.0814 78.0416 28.0813 76.0416L37.4975 66.6666H62.496L71.8705 76.0416C73.8704 78.0416 76.5786 79.1666 79.3701 79.1666C85.8697 79.1666 90.8278 73.4583 89.9112 67.0416ZM45.8303 45.8333H37.4975V54.1666H33.331V45.8333H24.9982V41.6666H33.331V33.3333H37.4975V41.6666H45.8303V45.8333ZM62.496 41.6666C60.2045 41.6666 58.3296 39.7916 58.3296 37.4999C58.3296 35.2083 60.2045 33.3333 62.496 33.3333C64.7876 33.3333 66.6625 35.2083 66.6625 37.4999C66.6625 39.7916 64.7876 41.6666 62.496 41.6666ZM70.8289 54.1666C68.5374 54.1666 66.6625 52.2916 66.6625 49.9999C66.6625 47.7083 68.5374 45.8333 70.8289 45.8333C73.1204 45.8333 74.9953 47.7083 74.9953 49.9999C74.9953 52.2916 73.1204 54.1666 70.8289 54.1666Z" fill="#2A7AE4"/>
<path d="M256.161 64C253.328 66.8333 250.028 68.25 246.262 68.25C243.929 68.25 241.729 67.7833 239.662 66.85C237.629 65.9167 235.846 64.6333 234.313 63C232.813 61.3667 231.613 59.45 230.713 57.25C229.846 55.0167 229.413 52.6167 229.413 50.05C229.413 47.6167 229.846 45.3333 230.713 43.2C231.613 41.0333 232.829 39.15 234.363 37.55C235.929 35.9167 237.762 34.6333 239.862 33.7C241.962 32.7333 244.245 32.25 246.712 32.25C250.045 32.25 252.895 32.95 255.261 34.35C257.661 35.75 259.461 37.6333 260.661 40L255.511 43.8C254.611 42.0333 253.345 40.6833 251.712 39.75C250.112 38.8167 248.362 38.35 246.462 38.35C244.962 38.35 243.579 38.6667 242.312 39.3C241.079 39.9333 240.012 40.8 239.112 41.9C238.246 43 237.562 44.2667 237.062 45.7C236.596 47.1333 236.362 48.65 236.362 50.25C236.362 51.9167 236.629 53.4833 237.162 54.95C237.696 56.3833 238.429 57.6333 239.362 58.7C240.296 59.7667 241.395 60.6167 242.662 61.25C243.962 61.85 245.362 62.15 246.862 62.15C250.295 62.15 253.395 60.5333 256.161 57.3V54.8H249.012V49.75H261.861V68H256.161V64Z" fill="#464646"/>
<path d="M279.241 68.5C277.141 68.5 275.241 68.15 273.541 67.45C271.841 66.7167 270.391 65.7333 269.191 64.5C267.991 63.2667 267.058 61.8333 266.391 60.2C265.758 58.5667 265.441 56.85 265.441 55.05C265.441 53.1833 265.758 51.4333 266.391 49.8C267.025 48.1333 267.941 46.6833 269.141 45.45C270.341 44.1833 271.791 43.1833 273.491 42.45C275.224 41.7167 277.157 41.35 279.291 41.35C281.424 41.35 283.324 41.7167 284.99 42.45C286.69 43.1833 288.123 44.1667 289.29 45.4C290.49 46.6333 291.39 48.0667 291.99 49.7C292.623 51.3333 292.94 53.0333 292.94 54.8C292.94 55.2333 292.923 55.65 292.89 56.05C292.89 56.45 292.856 56.7833 292.79 57.05H272.541C272.641 58.0833 272.891 59 273.291 59.8C273.691 60.6 274.207 61.2833 274.841 61.85C275.474 62.4167 276.191 62.85 276.991 63.15C277.791 63.45 278.624 63.6 279.49 63.6C280.824 63.6 282.074 63.2833 283.24 62.65C284.44 61.9833 285.257 61.1167 285.69 60.05L291.44 61.65C290.473 63.65 288.923 65.3 286.79 66.6C284.69 67.8667 282.174 68.5 279.241 68.5ZM286.04 52.7C285.873 50.7333 285.14 49.1667 283.84 48C282.574 46.8 281.024 46.2 279.191 46.2C278.291 46.2 277.441 46.3667 276.641 46.7C275.874 47 275.191 47.4333 274.591 48C273.991 48.5667 273.491 49.25 273.091 50.05C272.724 50.85 272.508 51.7333 272.441 52.7H286.04Z" fill="#464646"/>
<path d="M309.17 68.5C307.071 68.5 305.171 68.15 303.471 67.45C301.771 66.7167 300.321 65.7333 299.121 64.5C297.921 63.2667 296.988 61.8333 296.321 60.2C295.688 58.5667 295.371 56.85 295.371 55.05C295.371 53.1833 295.688 51.4333 296.321 49.8C296.954 48.1333 297.871 46.6833 299.071 45.45C300.271 44.1833 301.721 43.1833 303.421 42.45C305.154 41.7167 307.087 41.35 309.22 41.35C311.354 41.35 313.254 41.7167 314.92 42.45C316.62 43.1833 318.053 44.1667 319.22 45.4C320.42 46.6333 321.32 48.0667 321.92 49.7C322.553 51.3333 322.87 53.0333 322.87 54.8C322.87 55.2333 322.853 55.65 322.82 56.05C322.82 56.45 322.786 56.7833 322.72 57.05H302.471C302.571 58.0833 302.821 59 303.221 59.8C303.621 60.6 304.137 61.2833 304.771 61.85C305.404 62.4167 306.121 62.85 306.921 63.15C307.721 63.45 308.554 63.6 309.42 63.6C310.754 63.6 312.004 63.2833 313.17 62.65C314.37 61.9833 315.187 61.1167 315.62 60.05L321.37 61.65C320.403 63.65 318.853 65.3 316.72 66.6C314.62 67.8667 312.104 68.5 309.17 68.5ZM315.97 52.7C315.803 50.7333 315.07 49.1667 313.77 48C312.504 46.8 310.954 46.2 309.12 46.2C308.221 46.2 307.371 46.3667 306.571 46.7C305.804 47 305.121 47.4333 304.521 48C303.921 48.5667 303.421 49.25 303.021 50.05C302.654 50.85 302.438 51.7333 302.371 52.7H315.97Z" fill="#464646"/>
<path d="M344.85 68L337.251 56.65L333.651 60.2V68H326.951V31.5H333.651V53.65L344.15 41.85H351.3L341.55 52.95L352 68H344.85Z" fill="#464646"/>
<path d="M113.544 32.5H119.643L133.143 68H126.043L122.743 59.15H110.344L107.094 68H99.9944L113.544 32.5ZM121.493 54.3L116.593 40.35L111.494 54.3H121.493Z" fill="#2A7AE4"/>
<path d="M136.336 31.5H143.036V59.6C143.036 60.5667 143.269 61.3167 143.736 61.85C144.202 62.3833 144.869 62.65 145.736 62.65C146.136 62.65 146.569 62.5833 147.035 62.45C147.535 62.3167 148.002 62.15 148.435 61.95L149.335 67.05C148.435 67.4833 147.385 67.8167 146.186 68.05C144.986 68.2833 143.902 68.4 142.936 68.4C140.836 68.4 139.203 67.85 138.036 66.75C136.903 65.6167 136.336 64.0167 136.336 61.95V31.5Z" fill="#2A7AE4"/>
<path d="M160.254 68.5C157.554 68.5 155.504 67.6333 154.104 65.9C152.704 64.1667 152.004 61.6 152.004 58.2V41.8H158.704V56.75C158.704 60.7833 160.154 62.8 163.054 62.8C164.354 62.8 165.604 62.4167 166.804 61.65C168.037 60.85 169.037 59.65 169.803 58.05V41.8H176.503V60.3C176.503 61 176.62 61.5 176.853 61.8C177.12 62.1 177.536 62.2667 178.103 62.3V68C177.436 68.1333 176.87 68.2167 176.403 68.25C175.97 68.2833 175.57 68.3 175.203 68.3C174.003 68.3 173.02 68.0333 172.253 67.5C171.52 66.9333 171.087 66.1667 170.953 65.2L170.803 63.1C169.637 64.9 168.137 66.25 166.304 67.15C164.47 68.05 162.454 68.5 160.254 68.5Z" fill="#2A7AE4"/>
<path d="M198.76 47.6C196.727 47.6333 194.91 48.0333 193.31 48.8C191.71 49.5333 190.56 50.65 189.86 52.15V68H183.161V41.8H189.31V47.4C189.777 46.5 190.327 45.7 190.96 45C191.594 44.2667 192.277 43.6333 193.01 43.1C193.744 42.5667 194.477 42.1667 195.21 41.9C195.977 41.6 196.71 41.45 197.41 41.45C197.777 41.45 198.043 41.45 198.21 41.45C198.41 41.45 198.593 41.4667 198.76 41.5V47.6Z" fill="#2A7AE4"/>
<path d="M209.303 68.5C208.037 68.5 206.854 68.3 205.754 67.9C204.654 67.4667 203.704 66.8833 202.904 66.15C202.104 65.3833 201.471 64.5 201.004 63.5C200.571 62.5 200.354 61.4 200.354 60.2C200.354 58.9667 200.621 57.8333 201.154 56.8C201.721 55.7333 202.487 54.8333 203.454 54.1C204.454 53.3667 205.637 52.8 207.004 52.4C208.37 51.9667 209.87 51.75 211.503 51.75C212.67 51.75 213.803 51.85 214.903 52.05C216.036 52.25 217.036 52.5333 217.903 52.9V51.4C217.903 49.6667 217.403 48.3333 216.403 47.4C215.436 46.4667 213.987 46 212.053 46C210.653 46 209.287 46.25 207.954 46.75C206.62 47.25 205.254 47.9833 203.854 48.95L201.804 44.7C205.17 42.4667 208.803 41.35 212.703 41.35C216.47 41.35 219.386 42.2833 221.453 44.15C223.553 45.9833 224.603 48.65 224.603 52.15V60.3C224.603 61 224.719 61.5 224.953 61.8C225.219 62.1 225.636 62.2667 226.202 62.3V68C225.069 68.2333 224.086 68.35 223.253 68.35C221.986 68.35 221.003 68.0667 220.303 67.5C219.636 66.9333 219.22 66.1833 219.053 65.25L218.903 63.8C217.736 65.3333 216.32 66.5 214.653 67.3C212.987 68.1 211.203 68.5 209.303 68.5ZM211.203 63.6C212.337 63.6 213.403 63.4 214.403 63C215.436 62.6 216.236 62.0667 216.803 61.4C217.536 60.8333 217.903 60.2 217.903 59.5V56.5C217.103 56.2 216.236 55.9667 215.303 55.8C214.37 55.6 213.47 55.5 212.603 55.5C210.87 55.5 209.453 55.9 208.353 56.7C207.254 57.4667 206.704 58.45 206.704 59.65C206.704 60.7833 207.137 61.7333 208.004 62.5C208.87 63.2333 209.937 63.6 211.203 63.6Z" fill="#2A7AE4"/>
</svg>
